{
  "source": "C:\\Users\\Peter\\Desktop\\stuff\\MIUN\\quantitative_research\\video_compression\\videos\\BVI-HD\\BVI-HD_CDVL_videos\\ORIG\\PaintingTilting_1920x1080_60fps.mp4",
  "output": "C:\\Users\\Peter\\Desktop\\stuff\\MIUN\\quantitative_research\\video_compression\\compressed_videos\\BVI-HD\\h264\\3\\PaintingTilting_1920x1080_60fps_h264.mp4",
  "codec": "h264",
  "ok": "Input #0, mov,mp4,m4a,3gp,3g2,mj2, from 'C:\\Users\\Peter\\Desktop\\stuff\\MIUN\\quantitative_research\\video_compression\\videos\\BVI-HD\\BVI-HD_CDVL_videos\\ORIG\\PaintingTilting_1920x1080_60fps.mp4':\n  Metadata:\n    major_brand     : isom\n    minor_version   : 512\n    compatible_brands: isomiso2avc1mp41\n    encoder         : Lavf54.28.101\n  Duration: 00:00:05.00, start: 0.000000, bitrate: 667707 kb/s\n  Stream #0:0[0x1](und): Video: h264 (High 4:4:4 Predictive) (avc1 / 0x31637661), yuv420p(progressive), 1920x1080, 667702 kb/s, 60 fps, 60 tbr, 60 tbn (default)\n    Metadata:\n      handler_name    : VideoHandler\n      vendor_id       : [0][0][0][0]\n[out#0/mp4 @ 0000020210309cc0] Codec AVOption b:a (set bitrate (in bits/s)) has not been used for any stream. The most likely reason is either wrong type (e.g. a video option with no video streams) or that it is a private option of some decoder which was not actually used for any stream.\nStream mapping:\n  Stream #0:0 -> #0:0 (h264 (native) -> h264 (libx264))\nPress [q] to stop, [?] for help\n[libx264 @ 000002021031bc80] using cpu capabilities: MMX2 SSE2Fast SSSE3 SSE4.2 AVX FMA3 BMI2 AVX2\n[libx264 @ 000002021031bc80] profile High, level 5.0, 4:2:0, 8-bit\n[libx264 @ 000002021031bc80] 264 - core 165 r3222 b35605a - H.264/MPEG-4 AVC codec - Copyleft 2003-2025 - http://www.videolan.org/x264.html - options: cabac=1 ref=5 deblock=1:0:0 analyse=0x3:0x113 me=hex subme=8 psy=1 psy_rd=1.00:0.00 mixed_ref=1 me_range=16 chroma_me=1 trellis=2 8x8dct=1 cqm=0 deadzone=21,11 fast_pskip=1 chroma_qp_offset=-2 threads=18 lookahead_threads=3 sliced_threads=0 nr=0 decimate=1 interlaced=0 bluray_compat=0 constrained_intra=0 bframes=3 b_pyramid=2 b_adapt=1 b_bias=0 direct=3 weightb=1 open_gop=0 weightp=2 keyint=250 keyint_min=25 scenecut=40 intra_refresh=0 rc_lookahead=50 rc=cbr mbtree=1 bitrate=3000 ratetol=1.0 qcomp=0.60 qpmin=0 qpmax=69 qpstep=4 vbv_maxrate=3000 vbv_bufsize=3000 nal_hrd=none filler=0 ip_ratio=1.40 aq=1:1.00\nOutput #0, mp4, to 'C:\\Users\\Peter\\Desktop\\stuff\\MIUN\\quantitative_research\\video_compression\\compressed_videos\\BVI-HD\\h264\\3\\PaintingTilting_1920x1080_60fps_h264.mp4':\n  Metadata:\n    major_brand     : isom\n    minor_version   : 512\n    compatible_brands: isomiso2avc1mp41\n    encoder         : Lavf62.3.100\n  Stream #0:0(und): Video: h264 (avc1 / 0x31637661), yuv420p(tv, progressive), 1920x1080, q=2-31, 3000 kb/s, 60 fps, 15360 tbn (default)\n    Metadata:\n      encoder         : Lavc62.11.100 libx264\n      handler_name    : VideoHandler\n      vendor_id       : [0][0][0][0]\n    Side data:\n      cpb: bitrate max/min/avg: 3000000/0/3000000 buffer size: 3000000 vbv_delay: N/A\nframe=    0 fps=0.0 q=0.0 size=       0KiB time=N/A bitrate=N/A speed=N/A elapsed=0:00:01.12    \nframe=    0 fps=0.0 q=0.0 size=       0KiB time=N/A bitrate=N/A speed=N/A elapsed=0:00:01.76    \nframe=    0 fps=0.0 q=0.0 size=       0KiB time=N/A bitrate=N/A speed=N/A elapsed=0:00:02.35    \nframe=   28 fps=9.4 q=39.0 size=       0KiB time=00:00:00.36 bitrate=   1.0kbits/s speed=0.123x elapsed=0:00:02.97    \nframe=   58 fps= 16 q=39.0 size=     256KiB time=00:00:00.83 bitrate=2517.0kbits/s speed=0.235x elapsed=0:00:03.55    \nframe=   74 fps= 18 q=38.0 size=     256KiB time=00:00:01.20 bitrate=1747.9kbits/s speed=0.285x elapsed=0:00:04.20    \nframe=   89 fps= 19 q=39.0 size=     256KiB time=00:00:01.45 bitrate=1446.6kbits/s speed=0.302x elapsed=0:00:04.79    \nframe=  114 fps= 21 q=38.0 size=     256KiB time=00:00:01.83 bitrate=1144.1kbits/s speed=0.343x elapsed=0:00:05.33    \nframe=  138 fps= 23 q=38.0 size=     512KiB time=00:00:02.23 bitrate=1878.2kbits/s speed=0.375x elapsed=0:00:05.96    \nframe=  157 fps= 24 q=37.0 size=     512KiB time=00:00:02.50 bitrate=1677.9kbits/s speed=0.379x elapsed=0:00:06.59    \nframe=  178 fps= 25 q=37.0 size=     512KiB time=00:00:02.90 bitrate=1446.4kbits/s speed=0.402x elapsed=0:00:07.21    \nframe=  188 fps= 24 q=39.0 size=     512KiB time=00:00:03.10 bitrate=1353.1kbits/s speed=0.398x elapsed=0:00:07.78    \nframe=  211 fps= 25 q=39.0 size=     768KiB time=00:00:03.48 bitrate=1806.3kbits/s speed=0.417x elapsed=0:00:08.35    \nframe=  233 fps= 26 q=39.0 size=     768KiB time=00:00:03.83 bitrate=1641.3kbits/s speed=0.432x elapsed=0:00:08.87    \nframe=  250 fps= 26 q=41.0 size=     768KiB time=00:00:04.13 bitrate=1522.2kbits/s speed=0.438x elapsed=0:00:09.44    \n[mp4 @ 000002021031a600] Starting second pass: moving the moov atom to the beginning of the file\n[out#0/mp4 @ 0000020210309cc0] video:1201KiB audio:0KiB subtitle:0KiB other streams:0KiB global headers:0KiB muxing overhead: 0.363593%\nframe=  300 fps= 30 q=-1.0 Lsize=    1205KiB time=00:00:04.96 bitrate=1987.9kbits/s speed= 0.5x elapsed=0:00:09.92    \n[libx264 @ 000002021031bc80] frame I:2     Avg QP:36.99  size:166894\n[libx264 @ 000002021031bc80] frame P:76    Avg QP:36.25  size:  9194\n[libx264 @ 000002021031bc80] frame B:222   Avg QP:43.15  size:   885\n[libx264 @ 000002021031bc80] consecutive B-frames:  1.3%  0.0%  0.0% 98.7%\n[libx264 @ 000002021031bc80] mb I  I16..4:  0.1% 88.9% 11.0%\n[libx264 @ 000002021031bc80] mb P  I16..4:  0.0%  0.6%  0.0%  P16..4: 22.0%  3.7%  2.4%  0.0%  0.0%    skip:71.3%\n[libx264 @ 000002021031bc80] mb B  I16..4:  0.0%  0.0%  0.0%  B16..8:  8.8%  0.2%  0.1%  direct: 0.2%  skip:90.6%  L0:16.8% L1:82.7% BI: 0.4%\n[libx264 @ 000002021031bc80] 8x8 transform intra:89.4% inter:77.4%\n[libx264 @ 000002021031bc80] direct mvs  spatial:95.5% temporal:4.5%\n[libx264 @ 000002021031bc80] coded y,uvDC,uvAC intra: 93.1% 91.1% 65.0% inter: 1.8% 3.5% 0.3%\n[libx264 @ 000002021031bc80] i16 v,h,dc,p: 57% 15% 12% 16%\n[libx264 @ 000002021031bc80] i8 v,h,dc,ddl,ddr,vr,hd,vl,hu: 18%  6%  5%  8% 11% 14%  9% 16% 14%\n[libx264 @ 000002021031bc80] i4 v,h,dc,ddl,ddr,vr,hd,vl,hu: 12%  4%  2%  9% 13% 17% 12% 15% 14%\n[libx264 @ 000002021031bc80] i8c dc,h,v,p: 50% 14% 21% 15%\n[libx264 @ 000002021031bc80] Weighted P-Frames: Y:2.6% UV:0.0%\n[libx264 @ 000002021031bc80] ref P L0: 64.5% 32.3%  1.9%  0.7%  0.5%  0.0%\n[libx264 @ 000002021031bc80] ref B L0: 99.3%  0.5%  0.2%  0.0%\n[libx264 @ 000002021031bc80] ref B L1: 99.9%  0.1%\n[libx264 @ 000002021031bc80] kb/s:1966.25\n",
  "seconds": 10.608751773834229,
  "probe_out": {}
}